<svg width="585" height="575" viewBox="0 0 585 575" fill="none" xmlns="http://www.w3.org/2000/svg">
<g filter="url(#filter0_d_30_331)">
<g filter="url(#filter1_d_30_331)">
<path d="M3.99987 497.803C3.99987 496.705 4.88424 495.813 5.98166 495.803L536.056 490.977C537.167 490.967 538.074 491.865 538.074 492.977V505.345C538.074 509.25 535.745 512.571 532.59 513.162L381.57 541.493C379.777 541.829 377.96 541.918 376.151 541.758L9.80366 509.457C6.53303 509.169 3.99987 505.838 3.99987 501.826V497.803Z" fill="#19301E"/>
<path d="M200.54 472.765L539.987 499.084C546.061 499.555 551 494.551 551 487.906V221.666C551 215.226 546.362 209.967 540.546 209.649C540.181 209.629 539.822 209.734 539.509 209.924L528.477 216.62C528.151 216.818 527.776 216.919 527.395 216.91L200.54 209.633C195.536 209.633 191.49 214.503 191.49 220.51V461.186C191.489 467.194 195.536 472.377 200.54 472.765Z" fill="#19301E"/>
<path d="M195.128 472.765L534.574 499.084C540.649 499.555 545.587 494.551 545.587 487.905V221.666C545.587 215.02 540.649 209.633 534.574 209.633H195.127C190.123 209.633 186.077 214.503 186.077 220.51V461.186C186.077 467.193 190.123 472.377 195.128 472.765Z" fill="#377541" fill-opacity="0.8"/>
<path d="M205.702 455.797L521.862 478.659C526.805 479.016 530.822 474.909 530.822 469.484V236.39C530.822 230.965 526.805 226.549 521.862 226.527L205.702 225.091C201.574 225.072 198.235 229.063 198.235 234.004V446.31C198.235 451.252 201.574 455.499 205.702 455.797Z" fill="#19301E"/>
<path d="M409.734 246.405C409.732 247.509 410.625 248.405 411.728 248.408L493.052 248.631C494.158 248.634 495.056 247.739 495.058 246.634L495.064 242.072C495.066 240.966 494.17 240.068 493.064 240.069L411.739 240.097C410.636 240.097 409.742 240.99 409.74 242.094L409.734 246.405Z" fill="#377541" fill-opacity="0.8"/>
<path d="M369.555 243.923C369.554 245.027 370.447 245.923 371.551 245.926L387.262 245.955C388.367 245.957 389.264 245.062 389.266 243.958L389.269 242.108C389.27 241.002 388.374 240.105 387.268 240.105L371.557 240.11C370.454 240.111 369.559 241.004 369.558 242.108L369.555 243.923Z" fill="#377541" fill-opacity="0.8"/>
<path d="M369.543 252.002C369.542 253.104 370.432 253.999 371.533 254.005L387.244 254.082C388.351 254.087 389.252 253.192 389.254 252.085L389.256 250.235C389.258 249.132 388.365 248.235 387.262 248.232L371.551 248.19C370.446 248.187 369.548 249.081 369.546 250.187L369.543 252.002Z" fill="#377541" fill-opacity="0.8"/>
<path d="M271.317 251.521C271.316 252.623 272.206 253.519 273.308 253.524L345.776 253.879C346.883 253.884 347.784 252.989 347.786 251.882L347.788 250.123C347.79 249.019 346.897 248.123 345.794 248.12L273.325 247.924C272.22 247.921 271.321 248.816 271.32 249.921L271.317 251.521Z" fill="#377541" fill-opacity="0.8"/>
<path d="M258.767 259.202C258.765 260.302 259.651 261.196 260.751 261.205L332.458 261.774C333.568 261.783 334.473 260.887 334.474 259.777L334.477 258.048C334.478 256.947 333.589 256.051 332.488 256.045L260.78 255.633C259.672 255.626 258.771 256.522 258.769 257.63L258.767 259.202Z" fill="#377541" fill-opacity="0.8"/>
<path d="M258.755 266.945C258.754 268.042 259.636 268.935 260.733 268.947L332.44 269.735C333.552 269.747 334.461 268.85 334.462 267.738L334.465 266.009C334.466 264.91 333.581 264.016 332.482 264.006L260.775 263.375C259.665 263.366 258.759 264.262 258.757 265.372L258.755 266.945Z" fill="#377541" fill-opacity="0.8"/>
<path d="M258.744 274.687C258.742 275.781 259.621 276.674 260.716 276.689L332.423 277.695C333.537 277.711 334.449 276.813 334.451 275.699L334.453 273.969C334.455 272.873 333.573 271.979 332.477 271.966L260.77 271.117C259.657 271.104 258.748 272.002 258.746 273.114L258.744 274.687Z" fill="#377541" fill-opacity="0.8"/>
<path d="M369.532 260.082C369.53 261.181 370.416 262.076 371.516 262.085L387.226 262.209C388.336 262.218 389.24 261.322 389.242 260.213L389.245 258.363C389.246 257.262 388.357 256.366 387.256 256.36L371.546 256.27C370.438 256.263 369.536 257.159 369.534 258.267L369.532 260.082Z" fill="#377541" fill-opacity="0.8"/>
<path d="M369.52 268.161C369.518 269.259 370.401 270.152 371.498 270.164L387.208 270.337C388.32 270.349 389.228 269.452 389.23 268.34L389.233 266.49C389.234 265.391 388.349 264.497 387.25 264.487L371.54 264.349C370.43 264.339 369.524 265.236 369.522 266.346L369.52 268.161Z" fill="#377541" fill-opacity="0.8"/>
<path d="M369.508 276.241C369.506 277.335 370.385 278.228 371.48 278.243L387.19 278.464C388.304 278.479 389.216 277.581 389.218 276.467L389.221 274.618C389.222 273.521 388.341 272.628 387.244 272.615L371.534 272.429C370.421 272.416 369.512 273.313 369.51 274.426L369.508 276.241Z" fill="#377541" fill-opacity="0.8"/>
<path d="M369.496 284.32C369.494 285.413 370.37 286.304 371.462 286.323L387.172 286.591C388.289 286.61 389.204 285.711 389.206 284.594L389.209 282.745C389.21 281.651 388.333 280.759 387.239 280.742L371.528 280.508C370.413 280.492 369.5 281.39 369.499 282.505L369.496 284.32Z" fill="#377541" fill-opacity="0.8"/>
<path d="M316.679 283.419C316.678 284.511 317.553 285.403 318.645 285.421L363.161 286.181C364.277 286.2 365.193 285.301 365.195 284.185L365.198 282.388C365.199 281.294 364.321 280.402 363.227 280.385L318.711 279.723C317.596 279.706 316.683 280.605 316.682 281.72L316.679 283.419Z" fill="#377541" fill-opacity="0.8"/>
<path d="M369.484 292.4C369.482 293.49 370.354 294.38 371.444 294.402L387.154 294.718C388.273 294.741 389.193 293.841 389.194 292.722L389.197 290.873C389.199 289.781 388.324 288.89 387.233 288.87L371.523 288.588C370.405 288.568 369.488 289.468 369.487 290.585L369.484 292.4Z" fill="#377541" fill-opacity="0.8"/>
<path d="M369.472 300.479C369.471 301.567 370.338 302.457 371.426 302.482L387.136 302.846C388.257 302.872 389.181 301.971 389.182 300.849L389.185 299C389.186 297.911 388.316 297.021 387.227 296.998L371.517 296.668C370.397 296.645 369.476 297.545 369.475 298.665L369.472 300.479Z" fill="#377541" fill-opacity="0.8"/>
<path d="M369.46 308.558C369.459 309.644 370.323 310.532 371.408 310.561L387.118 310.972C388.241 311.002 389.169 310.1 389.17 308.976L389.173 307.128C389.175 306.041 388.308 305.151 387.221 305.125L371.511 304.748C370.389 304.721 369.464 305.622 369.463 306.744L369.46 308.558Z" fill="#377541" fill-opacity="0.8"/>
<path d="M293.937 290.88C293.936 291.97 294.807 292.86 295.897 292.882L345.687 293.884C346.806 293.906 347.725 293.006 347.727 291.887L347.73 290.129C347.731 289.037 346.857 288.146 345.765 288.127L295.975 287.234C294.858 287.214 293.941 288.113 293.94 289.231L293.937 290.88Z" fill="#377541" fill-opacity="0.8"/>
<path d="M265.981 298.081C265.979 299.169 266.847 300.059 267.935 300.084L332.37 301.577C333.491 301.603 334.414 300.702 334.416 299.58L334.418 297.851C334.42 296.762 333.55 295.872 332.46 295.849L268.025 294.497C266.906 294.474 265.985 295.374 265.983 296.494L265.981 298.081Z" fill="#377541" fill-opacity="0.8"/>
<path d="M265.969 305.846C265.968 306.931 266.832 307.82 267.917 307.848L332.352 309.537C333.475 309.566 334.402 308.664 334.404 307.54L334.407 305.812C334.408 304.725 333.541 303.836 332.455 303.81L268.02 302.262C266.898 302.235 265.973 303.136 265.972 304.259L265.969 305.846Z" fill="#377541" fill-opacity="0.8"/>
<path d="M369.448 316.638C369.447 317.721 370.308 318.608 371.39 318.64L387.1 319.1C388.226 319.133 389.157 318.23 389.159 317.103L389.161 315.255C389.163 314.171 388.3 313.283 387.215 313.253L371.505 312.828C370.381 312.798 369.453 313.7 369.451 314.824L369.448 316.638Z" fill="#377541" fill-opacity="0.8"/>
<path d="M369.437 324.717C369.435 325.798 370.292 326.684 371.372 326.719L387.082 327.227C388.21 327.263 389.145 326.359 389.147 325.231L389.149 323.383C389.151 322.3 388.291 321.413 387.209 321.381L371.5 320.908C370.373 320.874 369.441 321.777 369.439 322.904L369.437 324.717Z" fill="#377541" fill-opacity="0.8"/>
<path d="M369.425 332.797C369.423 333.875 370.277 334.76 371.354 334.798L387.064 335.354C388.194 335.394 389.133 334.489 389.135 333.358L389.137 331.511C389.139 330.431 388.283 329.545 387.204 329.509L371.494 328.988C370.365 328.95 369.429 329.854 369.428 330.984L369.425 332.797Z" fill="#377541" fill-opacity="0.8"/>
<path d="M369.413 340.876C369.411 341.952 370.261 342.836 371.336 342.877L387.046 343.481C388.179 343.524 389.121 342.619 389.123 341.485L389.125 339.638C389.127 338.56 388.275 337.675 387.198 337.636L371.488 337.068C370.357 337.027 369.417 337.932 369.415 339.063L369.413 340.876Z" fill="#377541" fill-opacity="0.8"/>
<path d="M369.401 348.955C369.4 350.029 370.246 350.912 371.318 350.957L387.028 351.608C388.163 351.655 389.109 350.748 389.111 349.612L389.114 347.766C389.115 346.691 388.266 345.807 387.192 345.764L371.482 345.148C370.349 345.103 369.405 346.009 369.404 347.143L369.401 348.955Z" fill="#377541" fill-opacity="0.8"/>
<path d="M369.389 357.035C369.388 358.106 370.23 358.988 371.3 359.036L387.01 359.734C388.147 359.785 389.097 358.878 389.099 357.739L389.102 355.893C389.103 354.82 388.258 353.937 387.186 353.892L371.476 353.228C370.341 353.18 369.394 354.086 369.392 355.223L369.389 357.035Z" fill="#377541" fill-opacity="0.8"/>
<path d="M369.377 365.114C369.376 366.183 370.215 367.064 371.282 367.115L386.992 367.861C388.131 367.915 389.085 367.007 389.087 365.866L389.089 364.021C389.091 362.95 388.249 362.068 387.18 362.02L371.471 361.308C370.333 361.256 369.382 362.164 369.38 363.303L369.377 365.114Z" fill="#377541" fill-opacity="0.8"/>
<path d="M369.365 373.193C369.364 374.26 370.199 375.14 371.264 375.194L386.974 375.988C388.115 376.046 389.073 375.137 389.075 373.994L389.078 372.149C389.079 371.08 388.241 370.2 387.174 370.148L371.465 369.388C370.325 369.333 369.37 370.241 369.368 371.383L369.365 373.193Z" fill="#377541" fill-opacity="0.8"/>
<path d="M369.354 381.273C369.352 382.337 370.184 383.216 371.247 383.273L386.956 384.115C388.1 384.176 389.061 383.266 389.063 382.121L389.066 380.276C389.067 379.211 388.233 378.331 387.169 378.276L371.459 377.468C370.317 377.409 369.358 378.319 369.356 379.463L369.354 381.273Z" fill="#377541" fill-opacity="0.8"/>
<path d="M369.342 389.352C369.34 390.414 370.168 391.292 371.229 391.352L386.938 392.242C388.084 392.307 389.049 391.396 389.051 390.248L389.054 388.404C389.055 387.341 388.224 386.462 387.163 386.404L371.453 385.548C370.309 385.486 369.346 386.396 369.344 387.542L369.342 389.352Z" fill="#377541" fill-opacity="0.8"/>
<path d="M369.33 397.431C369.328 398.49 370.153 399.367 371.211 399.43L386.92 400.368C388.068 400.437 389.038 399.525 389.039 398.375L389.042 396.532C389.043 395.471 388.216 394.593 387.157 394.532L371.448 393.629C370.301 393.563 369.334 394.474 369.333 395.622L369.33 397.431Z" fill="#377541" fill-opacity="0.8"/>
<path d="M369.318 405.51C369.316 406.567 370.138 407.443 371.193 407.509L386.902 408.495C388.052 408.567 389.026 407.655 389.027 406.502L389.03 404.66C389.032 403.601 388.208 402.725 387.151 402.661L371.442 401.709C370.293 401.639 369.322 402.552 369.321 403.702L369.318 405.51Z" fill="#377541" fill-opacity="0.8"/>
<path d="M369.306 413.589C369.305 414.644 370.122 415.519 371.175 415.588L386.884 416.622C388.036 416.698 389.014 415.784 389.015 414.629L389.018 412.787C389.019 411.731 388.199 410.855 387.145 410.788L371.436 409.789C370.285 409.716 369.311 410.629 369.309 411.782L369.306 413.589Z" fill="#377541" fill-opacity="0.8"/>
<path d="M369.294 421.668C369.293 422.721 370.107 423.594 371.157 423.667L386.866 424.748C388.021 424.828 389.002 423.913 389.003 422.756L389.006 420.915C389.008 419.861 388.191 418.987 387.139 418.917L371.43 417.87C370.277 417.793 369.299 418.706 369.297 419.862L369.294 421.668Z" fill="#377541" fill-opacity="0.8"/>
<path d="M369.282 429.748C369.281 430.798 370.092 431.67 371.139 431.746L386.848 432.875C388.005 432.958 388.99 432.043 388.992 430.883L388.994 429.043C388.996 427.991 388.182 427.118 387.133 427.045L371.424 425.95C370.269 425.87 369.287 426.784 369.285 427.942L369.282 429.748Z" fill="#377541" fill-opacity="0.8"/>
<path d="M369.271 437.827C369.269 438.874 370.076 439.746 371.121 439.824L386.83 441.001C387.989 441.088 388.978 440.172 388.98 439.01L388.982 437.171C388.984 436.121 388.174 435.249 387.127 435.173L371.418 434.03C370.261 433.946 369.275 434.862 369.273 436.022L369.271 437.827Z" fill="#377541" fill-opacity="0.8"/>
<path d="M369.259 445.906C369.257 446.951 370.061 447.821 371.103 447.903L386.812 449.128C387.973 449.218 388.966 448.302 388.968 447.137L388.97 445.299C388.972 444.252 388.166 443.381 387.122 443.301L371.413 442.111C370.253 442.023 369.263 442.939 369.261 444.102L369.259 445.906Z" fill="#377541" fill-opacity="0.8"/>
<path d="M369.247 453.985C369.245 455.028 370.046 455.897 371.085 455.981L386.794 457.254C387.957 457.348 388.954 456.431 388.956 455.264L388.958 453.426C388.96 452.382 388.157 451.512 387.116 451.43L371.407 450.191C370.245 450.1 369.251 451.017 369.25 452.182L369.247 453.985Z" fill="#377541" fill-opacity="0.8"/>
<path d="M311.632 243.815C311.63 244.919 312.524 245.816 313.628 245.818L363.384 245.91C364.489 245.912 365.386 245.018 365.388 243.913L365.391 242.116C365.392 241.01 364.496 240.113 363.39 240.113L313.634 240.13C312.53 240.13 311.636 241.024 311.634 242.127L311.632 243.815Z" fill="#377541" fill-opacity="0.8"/>
<path d="M271.089 407.126C271.087 408.181 271.905 409.056 272.958 409.125L345.419 413.893C346.572 413.969 347.549 413.056 347.551 411.901L347.553 410.15C347.555 409.093 346.735 408.218 345.68 408.151L273.218 403.542C272.067 403.468 271.093 404.381 271.091 405.535L271.089 407.126Z" fill="#377541" fill-opacity="0.8"/>
<path d="M258.539 414.043C258.538 415.096 259.352 415.969 260.402 416.041L332.103 420.978C333.258 421.057 334.239 420.143 334.241 418.986L334.243 417.265C334.245 416.211 333.428 415.336 332.376 415.266L260.675 410.487C259.521 410.41 258.543 411.324 258.542 412.48L258.539 414.043Z" fill="#377541" fill-opacity="0.8"/>
<path d="M258.528 421.785C258.527 422.835 259.337 423.708 260.385 423.783L332.085 428.938C333.242 429.021 334.227 428.106 334.229 426.946L334.231 425.226C334.233 424.174 333.42 423.301 332.37 423.228L260.669 418.23C259.514 418.15 258.532 419.064 258.53 420.222L258.528 421.785Z" fill="#377541" fill-opacity="0.8"/>
<path d="M225.895 427.082C225.894 428.13 226.701 429.001 227.746 429.079L297.487 434.306C298.646 434.393 299.634 433.477 299.636 432.314L299.638 430.671C299.64 429.622 298.83 428.75 297.784 428.673L228.043 423.6C226.885 423.516 225.899 424.431 225.898 425.592L225.895 427.082Z" fill="#377541" fill-opacity="0.8"/>
<path d="M225.884 434.725C225.883 435.77 226.687 436.64 227.729 436.722L297.469 442.16C298.63 442.251 299.623 441.334 299.625 440.169L299.627 438.527C299.629 437.48 298.822 436.609 297.778 436.53L228.038 431.244C226.878 431.156 225.888 432.072 225.887 433.235L225.884 434.725Z" fill="#377541" fill-opacity="0.8"/>
<path d="M225.873 442.367C225.872 443.41 226.672 444.28 227.712 444.364L297.452 450.015C298.615 450.109 299.611 449.192 299.613 448.024L299.615 446.383C299.617 445.338 298.814 444.468 297.773 444.386L228.033 438.888C226.871 438.796 225.877 439.713 225.875 440.879L225.873 442.367Z" fill="#377541" fill-opacity="0.8"/>
<path d="M311.4 401.875C311.398 402.932 312.22 403.808 313.275 403.874L363.026 406.997C364.177 407.069 365.15 406.156 365.151 405.004L365.154 403.213C365.156 402.155 364.332 401.278 363.275 401.214L313.523 398.201C312.374 398.131 311.404 399.043 311.402 400.194L311.4 401.875Z" fill="#377541" fill-opacity="0.8"/>
<path d="M271.215 321.544C271.213 322.625 272.07 323.511 273.15 323.546L345.615 325.887C346.744 325.924 347.678 325.02 347.68 323.891L347.683 322.134C347.684 321.052 346.825 320.165 345.743 320.132L273.277 317.95C272.151 317.916 271.219 318.819 271.217 319.946L271.215 321.544Z" fill="#377541" fill-opacity="0.8"/>
<path d="M258.664 328.881C258.663 329.959 259.516 330.845 260.594 330.883L332.299 333.418C333.429 333.458 334.368 332.553 334.369 331.422L334.372 329.694C334.373 328.614 333.517 327.728 332.438 327.692L260.733 325.315C259.604 325.278 258.668 326.182 258.667 327.311L258.664 328.881Z" fill="#377541" fill-opacity="0.8"/>
<path d="M258.653 336.624C258.652 337.7 259.501 338.584 260.576 338.625L332.281 341.378C333.413 341.422 334.356 340.516 334.357 339.383L334.36 337.656C334.362 336.578 333.509 335.693 332.432 335.654L260.728 333.058C259.597 333.017 258.657 333.922 258.655 335.054L258.653 336.624Z" fill="#377541" fill-opacity="0.8"/>
<path d="M258.642 344.366C258.64 345.439 259.486 346.322 260.559 346.367L332.263 349.338C333.398 349.385 334.344 348.479 334.346 347.343L334.348 345.616C334.35 344.541 333.501 343.657 332.427 343.615L260.722 340.801C259.589 340.756 258.646 341.662 258.644 342.796L258.642 344.366Z" fill="#377541" fill-opacity="0.8"/>
<path d="M316.575 354.685C316.573 355.756 317.416 356.638 318.486 356.686L363 358.666C364.137 358.717 365.087 357.81 365.089 356.671L365.091 354.878C365.093 353.805 364.248 352.922 363.176 352.877L318.662 350.994C317.526 350.946 316.579 351.853 316.577 352.989L316.575 354.685Z" fill="#377541" fill-opacity="0.8"/>
<path d="M293.834 361.524C293.832 362.592 294.671 363.474 295.739 363.524L345.526 365.891C346.666 365.945 347.62 365.036 347.621 363.896L347.624 362.141C347.625 361.071 346.784 360.189 345.715 360.14L295.927 357.883C294.789 357.831 293.838 358.739 293.836 359.878L293.834 361.524Z" fill="#377541" fill-opacity="0.8"/>
<path d="M265.879 367.96C265.877 369.026 266.712 369.906 267.777 369.96L332.21 373.219C333.351 373.276 334.309 372.367 334.311 371.224L334.313 369.499C334.315 368.431 333.477 367.55 332.41 367.498L267.977 364.381C266.837 364.326 265.882 365.234 265.881 366.376L265.879 367.96Z" fill="#377541" fill-opacity="0.8"/>
<path d="M265.867 375.724C265.866 376.788 266.698 377.667 267.76 377.724L332.192 381.178C333.336 381.24 334.297 380.33 334.299 379.184L334.302 377.46C334.303 376.394 333.469 375.514 332.404 375.46L267.972 372.146C266.83 372.087 265.871 372.997 265.87 374.141L265.867 375.724Z" fill="#377541" fill-opacity="0.8"/>
<path d="M250.685 382.628C250.684 383.689 251.512 384.567 252.572 384.627L316.18 388.232C317.326 388.297 318.292 387.386 318.293 386.238L318.296 384.549C318.297 383.486 317.466 382.607 316.405 382.549L252.796 379.084C251.652 379.022 250.689 379.932 250.687 381.079L250.685 382.628Z" fill="#377541" fill-opacity="0.8"/>
<path d="M250.674 390.346C250.672 391.405 251.497 392.282 252.555 392.345L316.163 396.143C317.311 396.212 318.28 395.3 318.282 394.15L318.284 392.462C318.286 391.401 317.459 390.523 316.399 390.462L252.791 386.804C251.644 386.738 250.678 387.649 250.676 388.797L250.674 390.346Z" fill="#377541" fill-opacity="0.8"/>
<path d="M311.527 314.943C311.526 316.026 312.386 316.914 313.469 316.945L363.223 318.401C364.349 318.434 365.28 317.531 365.281 316.405L365.284 314.609C365.286 313.524 364.422 312.636 363.338 312.607L313.584 311.26C312.46 311.23 311.532 312.132 311.53 313.256L311.527 314.943Z" fill="#377541" fill-opacity="0.8"/>
<path d="M409.715 259.391C409.713 260.491 410.6 261.386 411.699 261.394L456.537 261.733C457.646 261.742 458.55 260.846 458.552 259.736L458.558 255.287C458.56 254.185 457.67 253.289 456.567 253.284L411.73 253.083C410.623 253.078 409.722 253.973 409.721 255.08L409.715 259.391Z" fill="#377541" fill-opacity="0.8"/>
<path d="M471.184 259.832C471.182 260.941 470.278 261.838 469.168 261.829L463.97 261.79C462.87 261.781 461.984 260.887 461.985 259.787L461.992 255.314C461.994 254.207 462.894 253.312 464.001 253.317L469.199 253.341C470.301 253.346 471.192 254.241 471.19 255.343L471.184 259.832Z" fill="#377541" fill-opacity="0.8"/>
<path d="M409.697 271.339C409.695 272.435 410.577 273.328 411.673 273.341L456.51 273.88C457.623 273.893 458.533 272.995 458.534 271.883L458.541 267.433C458.542 266.334 457.657 265.44 456.559 265.43L411.721 265.03C410.611 265.021 409.705 265.917 409.703 267.027L409.697 271.339Z" fill="#377541" fill-opacity="0.8"/>
<path d="M471.166 272.035C471.164 273.147 470.255 274.045 469.142 274.031L463.944 273.969C462.847 273.956 461.966 273.063 461.968 271.966L461.974 267.494C461.976 266.384 462.882 265.487 463.992 265.497L469.19 265.543C470.289 265.553 471.174 266.447 471.172 267.546L471.166 272.035Z" fill="#377541" fill-opacity="0.8"/>
<path d="M409.679 283.286C409.678 284.379 410.554 285.271 411.647 285.289L456.483 286.026C457.599 286.044 458.515 285.145 458.516 284.029L458.523 279.58C458.524 278.484 457.645 277.591 456.549 277.577L411.712 276.978C410.599 276.963 409.687 277.861 409.686 278.975L409.679 283.286Z" fill="#377541" fill-opacity="0.8"/>
<path d="M471.148 284.237C471.146 285.353 470.231 286.252 469.115 286.233L463.917 286.148C462.824 286.13 461.948 285.238 461.95 284.145L461.956 279.673C461.958 278.559 462.869 277.661 463.983 277.676L469.181 277.746C470.276 277.76 471.156 278.653 471.154 279.748L471.148 284.237Z" fill="#377541" fill-opacity="0.8"/>
<path d="M409.555 368.09C409.553 369.159 410.392 370.04 411.459 370.091L492.778 373.988C493.918 374.043 494.872 373.134 494.874 371.993L494.88 367.435C494.882 366.364 494.04 365.482 492.97 365.434L411.651 361.788C410.514 361.737 409.563 362.644 409.561 363.783L409.555 368.09Z" fill="#377541" fill-opacity="0.8"/>
<path d="M409.536 381.076C409.534 382.141 410.367 383.02 411.431 383.076L456.265 385.441C457.408 385.501 458.369 384.592 458.37 383.447L458.377 379.002C458.379 377.935 457.542 377.055 456.476 377.002L411.642 374.775C410.501 374.719 409.544 375.627 409.542 376.77L409.536 381.076Z" fill="#377541" fill-opacity="0.8"/>
<path d="M471.001 384.113C471 385.258 470.039 386.168 468.896 386.107L463.698 385.833C462.635 385.777 461.802 384.898 461.803 383.833L461.81 379.365C461.812 378.223 462.768 377.314 463.909 377.371L469.107 377.629C470.173 377.682 471.009 378.562 471.008 379.629L471.001 384.113Z" fill="#377541" fill-opacity="0.8"/>
<path d="M409.518 393.023C409.517 394.085 410.345 394.962 411.404 395.023L456.238 397.587C457.385 397.652 458.351 396.741 458.353 395.593L458.359 391.149C458.361 390.085 457.529 389.207 456.467 389.149L411.633 386.724C410.489 386.662 409.526 387.572 409.525 388.718L409.518 393.023Z" fill="#377541" fill-opacity="0.8"/>
<path d="M470.983 396.315C470.982 397.463 470.015 398.374 468.869 398.309L463.671 398.011C462.612 397.951 461.784 397.073 461.785 396.012L461.792 391.545C461.794 390.399 462.756 389.489 463.9 389.551L469.098 389.832C470.16 389.889 470.991 390.768 470.99 391.832L470.983 396.315Z" fill="#377541" fill-opacity="0.8"/>
<path d="M409.501 404.97C409.499 406.028 410.322 406.904 411.378 406.969L456.212 409.732C457.361 409.803 458.333 408.89 458.335 407.739L458.341 403.296C458.343 402.236 457.517 401.358 456.458 401.296L411.624 398.672C410.477 398.605 409.509 399.516 409.507 400.665L409.501 404.97Z" fill="#377541" fill-opacity="0.8"/>
<path d="M470.965 408.517C470.964 409.669 469.992 410.581 468.842 410.511L463.645 410.19C462.589 410.125 461.766 409.249 461.768 408.191L461.774 403.725C461.776 402.576 462.744 401.664 463.891 401.732L469.089 402.036C470.147 402.098 470.974 402.975 470.972 404.035L470.965 408.517Z" fill="#377541" fill-opacity="0.8"/>
<path d="M409.662 295.314C409.66 296.404 410.531 297.294 411.62 297.317L492.942 299.017C494.061 299.04 494.982 298.14 494.984 297.02L494.99 292.458C494.992 291.367 494.117 290.475 493.026 290.456L411.704 289.007C410.587 288.987 409.67 289.886 409.668 291.004L409.662 295.314Z" fill="#377541" fill-opacity="0.8"/>
<path d="M409.643 308.301C409.641 309.386 410.506 310.275 411.591 310.303L456.428 311.456C457.551 311.485 458.477 310.583 458.479 309.46L458.486 305.011C458.487 303.923 457.619 303.033 456.531 303.009L411.694 301.994C410.574 301.968 409.651 302.869 409.649 303.99L409.643 308.301Z" fill="#377541" fill-opacity="0.8"/>
<path d="M471.11 309.785C471.109 310.909 470.182 311.81 469.059 311.781L463.861 311.648C462.775 311.62 461.91 310.731 461.912 309.645L461.919 305.174C461.92 304.053 462.843 303.152 463.964 303.177L469.162 303.295C470.25 303.32 471.118 304.209 471.117 305.297L471.11 309.785Z" fill="#377541" fill-opacity="0.8"/>
<path d="M409.625 320.248C409.624 321.33 410.483 322.217 411.565 322.25L456.401 323.602C457.527 323.636 458.46 322.733 458.461 321.606L458.468 317.158C458.469 316.073 457.606 315.185 456.522 315.155L411.686 313.942C410.562 313.911 409.633 314.813 409.632 315.938L409.625 320.248Z" fill="#377541" fill-opacity="0.8"/>
<path d="M471.092 321.987C471.091 323.114 470.159 324.017 469.032 323.983L463.834 323.826C462.753 323.794 461.893 322.907 461.895 321.824L461.901 317.353C461.903 316.229 462.831 315.327 463.955 315.357L469.153 315.498C470.238 315.527 471.101 316.415 471.099 317.5L471.092 321.987Z" fill="#377541" fill-opacity="0.8"/>
<path d="M409.59 344.297C409.588 345.372 410.437 346.257 411.512 346.299L456.347 348.051C457.48 348.095 458.423 347.19 458.425 346.056L458.432 341.609C458.433 340.531 457.581 339.646 456.504 339.607L411.668 337.993C410.537 337.952 409.598 338.857 409.596 339.988L409.59 344.297Z" fill="#377541" fill-opacity="0.8"/>
<path d="M471.056 346.549C471.055 347.683 470.111 348.589 468.978 348.545L463.78 348.342C462.706 348.3 461.857 347.416 461.858 346.34L461.865 341.87C461.867 340.739 462.806 339.834 463.937 339.875L469.135 340.062C470.212 340.1 471.064 340.986 471.063 342.063L471.056 346.549Z" fill="#377541" fill-opacity="0.8"/>
<path d="M409.573 356.244C409.571 357.316 410.415 358.199 411.486 358.245L456.321 360.197C457.457 360.246 458.406 359.339 458.408 358.202L458.414 353.755C458.416 352.681 457.568 351.797 456.495 351.754L411.66 349.941C410.525 349.895 409.58 350.801 409.579 351.936L409.573 356.244Z" fill="#377541" fill-opacity="0.8"/>
<path d="M471.038 358.752C471.037 359.889 470.088 360.796 468.952 360.747L463.754 360.52C462.683 360.474 461.839 359.591 461.84 358.519L461.847 354.05C461.849 352.915 462.794 352.009 463.928 352.055L469.126 352.265C470.199 352.308 471.047 353.192 471.045 354.266L471.038 358.752Z" fill="#377541" fill-opacity="0.8"/>
<path d="M409.608 332.195C409.606 333.274 410.46 334.159 411.539 334.197L456.374 335.748C457.504 335.787 458.442 334.882 458.443 333.752L458.45 329.304C458.451 328.223 457.593 327.336 456.513 327.302L411.677 325.89C410.55 325.854 409.616 326.758 409.614 327.886L409.608 332.195Z" fill="#377541" fill-opacity="0.8"/>
<path d="M471.075 334.189C471.073 335.32 470.135 336.224 469.005 336.185L463.807 336.005C462.729 335.968 461.875 335.082 461.877 334.004L461.883 329.533C461.885 328.405 462.819 327.501 463.946 327.537L469.144 327.701C470.225 327.735 471.083 328.622 471.081 329.703L471.075 334.189Z" fill="#377541" fill-opacity="0.8"/>
<path d="M409.483 416.913C409.482 417.967 410.299 418.842 411.352 418.911L492.668 424.283C493.821 424.359 494.798 423.446 494.8 422.29L494.806 417.736C494.808 416.679 493.987 415.803 492.932 415.737L411.615 410.617C410.465 410.544 409.491 411.457 409.49 412.61L409.483 416.913Z" fill="#377541" fill-opacity="0.8"/>
<path d="M409.464 429.899C409.463 430.949 410.275 431.822 411.323 431.897L456.156 435.074C457.312 435.156 458.296 434.241 458.297 433.082L458.304 428.642C458.305 427.588 457.49 426.715 456.439 426.643L411.606 423.604C410.452 423.526 409.472 424.44 409.471 425.596L409.464 429.899Z" fill="#377541" fill-opacity="0.8"/>
<path d="M470.928 433.977C470.926 435.136 469.943 436.051 468.787 435.969L463.589 435.601C462.541 435.527 461.729 434.654 461.73 433.603L461.737 429.14C461.738 427.983 462.718 427.069 463.872 427.147L469.07 427.5C470.121 427.571 470.936 428.445 470.935 429.498L470.928 433.977Z" fill="#377541" fill-opacity="0.8"/>
<path d="M409.447 441.846C409.445 442.893 410.252 443.764 411.297 443.843L456.13 447.219C457.289 447.307 458.278 446.391 458.28 445.228L458.286 440.789C458.288 439.739 457.477 438.867 456.43 438.791L411.597 435.553C410.44 435.469 409.455 436.385 409.453 437.545L409.447 441.846Z" fill="#377541" fill-opacity="0.8"/>
<path d="M470.91 446.179C470.908 447.342 469.919 448.258 468.76 448.171L463.562 447.779C462.518 447.701 461.711 446.829 461.712 445.782L461.719 441.32C461.721 440.16 462.706 439.245 463.863 439.328L469.061 439.703C470.108 439.779 470.918 440.651 470.917 441.701L470.91 446.179Z" fill="#377541" fill-opacity="0.8"/>
<path d="M409.429 453.793C409.428 454.837 410.23 455.706 411.27 455.789L456.103 459.364C457.265 459.457 458.26 458.54 458.262 457.374L458.268 452.936C458.27 451.889 457.465 451.019 456.421 450.939L411.589 447.502C410.428 447.413 409.437 448.329 409.436 449.493L409.429 453.793Z" fill="#377541" fill-opacity="0.8"/>
<path d="M470.892 458.381C470.891 459.547 469.896 460.465 468.733 460.372L463.536 459.957C462.495 459.874 461.693 459.005 461.695 457.961L461.701 453.5C461.703 452.336 462.694 451.42 463.854 451.509L469.052 451.907C470.095 451.987 470.9 452.858 470.899 453.904L470.892 458.381Z" fill="#377541" fill-opacity="0.8"/>
<path d="M399.06 453.987C399.06 454.478 399.436 454.886 399.925 454.925V454.925C400.471 454.969 400.939 454.538 400.94 453.99L401.252 241.041C401.253 240.522 400.832 240.1 400.312 240.1V240.1C399.794 240.101 399.374 240.52 399.373 241.039L399.06 453.987Z" fill="#377541" fill-opacity="0.8"/>
<path d="M352.863 216.915C352.863 219.389 354.61 221.4 356.767 221.408C358.927 221.415 360.68 219.411 360.68 216.932C360.68 214.452 358.927 212.441 356.767 212.439C354.61 212.437 352.863 214.441 352.863 216.915Z" fill="#377541" fill-opacity="0.8"/>
<path opacity="0.48" d="M534.576 499.085L196.846 472.899L195.127 472.765C194.173 472.691 193.254 472.441 192.391 472.044C190.878 471.347 191.584 469.424 193.243 469.263C215.167 467.134 229.106 458.555 238.285 449.707C257.84 430.858 254.448 412.269 275.536 399.875C301.839 384.417 322.52 404.005 342.479 384.679C354.58 372.962 348.639 364.225 363.528 346.715C380.019 327.322 390.756 333.841 407.329 316.387C428.285 294.318 417.804 277.148 435.855 261.303C457.753 242.08 481.369 259.872 502.215 241.437C510.818 233.829 515.706 222.918 518.368 211.221C518.578 210.298 519.393 209.634 520.339 209.634H534.575C540.649 209.634 545.588 215.021 545.588 221.666V487.906C545.587 494.551 540.65 499.555 534.576 499.085Z" fill="#377541" fill-opacity="0.8"/>
<path d="M179.134 471.306L522.966 497.843C525.297 498.023 525.479 501.371 523.181 501.803L381.57 528.368C379.777 528.704 377.96 528.793 376.151 528.634L21.2056 497.338C18.8391 497.129 18.7455 493.704 21.097 493.366L173.425 471.494C175.319 471.222 177.23 471.159 179.134 471.306Z" fill="#468D56"/>
<path d="M468.775 501.88C471.12 501.515 470.99 498.095 468.624 497.909L187.091 475.857C186.945 475.845 186.798 475.85 186.653 475.871L111.854 486.524C109.497 486.86 109.595 490.297 111.968 490.497L390.401 514.014C390.56 514.027 390.72 514.021 390.877 513.997L468.775 501.88Z" fill="#19301E"/>
</g>
<path d="M143.765 52.2275L452.829 41.5303C463.193 41.1715 471.63 49.7826 471.63 60.765V378.037C471.63 389.019 463.193 397.543 452.829 397.077L143.765 383.177C134.826 382.775 127.607 374.23 127.607 364.09V71.1476C127.607 61.0072 134.826 52.537 143.765 52.2275Z" fill="#445147"/>
<path opacity="0.74" d="M452.829 390.753C459.878 391.061 465.609 385.258 465.609 377.792V60.9467C465.609 53.4811 459.878 47.6192 452.829 47.8532L143.765 58.1129C137.676 58.315 132.753 64.0809 132.753 70.992V364.298C132.753 371.209 137.676 377.026 143.765 377.291L452.829 390.753Z" fill="#377541" fill-opacity="0.8"/>
<path d="M143.765 52.2275L452.829 41.5303C463.193 41.1715 471.63 49.7826 471.63 60.7652V73.0833C471.63 74.1669 470.767 75.0534 469.684 75.0826L129.661 84.2629C128.536 84.2933 127.607 83.3894 127.607 82.2637V71.1476C127.607 61.007 134.826 52.537 143.765 52.2275Z" fill="#468D56"/>
<path d="M438.201 59.8618C438.201 63.4295 440.928 66.242 444.297 66.1438C447.671 66.0455 450.41 63.0655 450.41 59.4882C450.41 55.9107 447.671 53.0986 444.297 53.2066C440.928 53.3147 438.201 56.2944 438.201 59.8618Z" fill="#377541" fill-opacity="0.8"/>
<path d="M416.923 60.5133C416.923 64.0638 419.624 66.8635 422.961 66.7662C426.302 66.6688 429.015 63.7035 429.015 60.1431C429.015 56.583 426.302 53.7837 422.961 53.8907C419.624 53.9978 416.923 56.9628 416.923 60.5133Z" fill="#377541" fill-opacity="0.8"/>
<path d="M395.848 61.1581C395.848 64.6919 398.523 67.4785 401.828 67.3821C405.138 67.2856 407.825 64.3348 407.825 60.7916C407.825 57.2484 405.138 54.462 401.828 54.5681C398.523 54.674 395.848 57.6244 395.848 61.1581Z" fill="#377541" fill-opacity="0.8"/>
<path d="M286.47 116.69C286.47 115.6 287.342 114.711 288.432 114.69L447.677 111.676C448.796 111.654 449.715 112.556 449.715 113.675V119.779C449.715 120.871 448.839 121.761 447.748 121.779L288.503 124.433C287.385 124.452 286.47 123.551 286.47 122.434V116.69Z" fill="#377541" fill-opacity="0.8"/>
<path d="M161.7 117.09C162.819 117.069 163.738 117.97 163.738 119.09V124.547C163.738 125.638 162.863 126.528 161.771 126.546L148.5 126.767C147.383 126.786 146.467 125.885 146.467 124.768V119.341C146.467 118.251 147.339 117.362 148.429 117.341L161.7 117.09Z" fill="#377541" fill-opacity="0.8"/>
<path d="M415.202 144.453C415.202 145.567 416.112 146.466 417.225 146.453L447.737 146.111C448.833 146.099 449.715 145.207 449.715 144.111V137.691C449.715 136.576 448.803 135.676 447.688 135.691L417.175 136.105C416.081 136.12 415.202 137.011 415.202 138.105V144.453Z" fill="#377541" fill-opacity="0.8"/>
<path d="M230.829 146.521C230.829 147.634 231.738 148.533 232.852 148.521L391.192 146.745C392.288 146.733 393.17 145.841 393.17 144.745V138.457C393.17 137.342 392.258 136.442 391.143 136.457L232.802 138.603C231.708 138.618 230.829 139.509 230.829 140.603V146.521Z" fill="#377541" fill-opacity="0.8"/>
<path d="M359.523 162.533C359.523 163.644 360.427 164.541 361.538 164.533L391.184 164.319C392.283 164.311 393.17 163.418 393.17 162.319V156.031C393.17 154.919 392.263 154.02 391.151 154.031L361.504 154.314C360.407 154.325 359.523 155.217 359.523 156.314V162.533Z" fill="#377541" fill-opacity="0.8"/>
<path d="M179.662 163.833C179.662 164.943 180.566 165.841 181.676 165.833L336.054 164.718C337.153 164.71 338.039 163.817 338.039 162.718V156.559C338.039 155.446 337.132 154.548 336.02 154.559L181.642 156.034C180.545 156.045 179.662 156.937 179.662 158.034V163.833Z" fill="#377541" fill-opacity="0.8"/>
<path d="M359.523 179.99C359.523 181.097 360.422 181.993 361.53 181.99L391.176 181.893C392.278 181.89 393.17 180.995 393.17 179.893V173.605C393.17 172.496 392.268 171.599 391.159 171.605L361.512 171.77C360.412 171.777 359.523 172.67 359.523 173.77V179.99Z" fill="#377541" fill-opacity="0.8"/>
<path d="M179.662 180.572C179.662 181.679 180.561 182.575 181.668 182.572L336.046 182.072C337.148 182.068 338.039 181.174 338.039 180.072V173.912C338.039 172.803 337.137 171.906 336.028 171.912L181.65 172.773C180.55 172.779 179.662 173.672 179.662 174.773V180.572Z" fill="#377541" fill-opacity="0.8"/>
<path d="M415.202 197.487C415.202 198.591 416.097 199.487 417.201 199.487L447.713 199.51C448.818 199.511 449.715 198.616 449.715 197.51V191.09C449.715 189.984 448.817 189.088 447.712 189.09L417.199 189.138C416.096 189.14 415.202 190.035 415.202 191.138V197.487Z" fill="#377541" fill-opacity="0.8"/>
<path d="M230.829 197.349C230.829 198.453 231.724 199.348 232.828 199.349L391.168 199.468C392.273 199.469 393.17 198.573 393.17 197.468V191.18C393.17 190.074 392.272 189.178 391.167 189.18L232.826 189.43C231.723 189.432 230.829 190.327 230.829 191.43V197.349Z" fill="#377541" fill-opacity="0.8"/>
<path d="M359.523 214.901C359.523 216.002 360.413 216.896 361.514 216.901L391.16 217.042C392.269 217.047 393.17 216.15 393.17 215.042V208.753C393.17 207.651 392.277 206.756 391.175 206.753L361.528 206.682C360.421 206.679 359.523 207.576 359.523 208.682V214.901Z" fill="#377541" fill-opacity="0.8"/>
<path d="M179.662 214.048C179.662 215.149 180.551 216.043 181.652 216.048L336.03 216.78C337.138 216.786 338.039 215.889 338.039 214.78V208.621C338.039 207.518 337.147 206.624 336.044 206.621L181.666 206.249C180.56 206.247 179.662 207.143 179.662 208.249V214.048Z" fill="#377541" fill-opacity="0.8"/>
<path d="M359.523 232.357C359.523 233.455 360.408 234.347 361.506 234.357L391.152 234.616C392.264 234.625 393.17 233.727 393.17 232.616V226.327C393.17 225.228 392.282 224.335 391.183 224.327L361.536 224.138C360.426 224.131 359.523 225.028 359.523 226.138V232.357Z" fill="#377541" fill-opacity="0.8"/>
<path d="M179.662 230.787C179.662 231.884 180.546 232.777 181.644 232.787L336.022 234.134C337.133 234.144 338.039 233.246 338.039 232.134V225.975C338.039 224.875 337.152 223.982 336.052 223.975L181.674 222.988C180.565 222.981 179.662 223.878 179.662 224.988V230.787Z" fill="#377541" fill-opacity="0.8"/>
<path d="M359.523 249.813C359.523 250.907 360.403 251.799 361.498 251.813L391.144 252.19C392.259 252.204 393.17 251.304 393.17 250.19V243.902C393.17 242.805 392.287 241.913 391.191 241.902L361.544 241.594C360.431 241.582 359.523 242.481 359.523 243.594V249.813Z" fill="#377541" fill-opacity="0.8"/>
<path d="M179.662 247.525C179.662 248.62 180.542 249.511 181.636 249.525L336.014 251.489C337.128 251.503 338.039 250.603 338.039 249.489V243.329C338.039 242.233 337.157 241.341 336.06 241.329L181.682 239.727C180.57 239.715 179.662 240.614 179.662 241.726V247.525Z" fill="#377541" fill-opacity="0.8"/>
<path d="M304.716 266.353C304.716 267.444 305.591 268.334 306.682 268.353L335.488 268.834C336.606 268.852 337.521 267.952 337.521 266.834V260.676C337.521 259.583 336.643 258.692 335.55 258.676L306.745 258.262C305.629 258.246 304.716 259.146 304.716 260.262V266.353Z" fill="#377541" fill-opacity="0.8"/>
<path d="M155.084 263.853C155.084 264.944 155.96 265.834 157.051 265.853L281.732 267.936C282.85 267.954 283.766 267.054 283.766 265.936V259.904C283.766 258.81 282.888 257.92 281.794 257.904L157.113 256.112C155.997 256.096 155.084 256.996 155.084 258.112V263.853Z" fill="#377541" fill-opacity="0.8"/>
<path d="M415.202 285.876C415.202 286.964 416.073 287.853 417.161 287.876L447.673 288.507C448.794 288.53 449.715 287.628 449.715 286.507V280.088C449.715 278.998 448.842 278.108 447.751 278.088L417.239 277.528C416.12 277.508 415.202 278.409 415.202 279.528V285.876Z" fill="#377541" fill-opacity="0.8"/>
<path d="M230.829 282.061C230.829 283.149 231.7 284.038 232.788 284.06L391.128 287.337C392.249 287.36 393.17 286.458 393.17 285.338V279.05C393.17 277.96 392.297 277.07 391.207 277.05L232.866 274.143C231.747 274.123 230.829 275.024 230.829 276.143V282.061Z" fill="#377541" fill-opacity="0.8"/>
<path d="M359.523 302.179C359.523 303.265 360.389 304.152 361.474 304.179L391.12 304.911C392.244 304.938 393.17 304.035 393.17 302.911V296.624C393.17 295.537 392.301 294.649 391.214 294.625L361.568 293.962C360.446 293.937 359.523 294.839 359.523 295.961V302.179Z" fill="#377541" fill-opacity="0.8"/>
<path d="M179.662 297.739C179.662 298.825 180.527 299.712 181.612 299.739L335.99 303.55C337.114 303.577 338.039 302.674 338.039 301.55V295.392C338.039 294.305 337.171 293.417 336.084 293.392L181.706 289.942C180.584 289.917 179.662 290.819 179.662 291.941V297.739Z" fill="#377541" fill-opacity="0.8"/>
<path d="M359.523 319.635C359.523 320.717 360.384 321.603 361.466 321.634L391.112 322.484C392.239 322.517 393.17 321.612 393.17 320.485V314.198C393.17 313.114 392.306 312.228 391.222 312.199L361.576 311.418C360.451 311.389 359.523 312.292 359.523 313.418V319.635Z" fill="#377541" fill-opacity="0.8"/>
<path d="M179.662 314.478C179.662 315.56 180.522 316.446 181.604 316.477L335.982 320.904C337.109 320.936 338.039 320.032 338.039 318.905V312.747C338.039 311.663 337.176 310.776 336.092 310.747L181.714 306.681C180.589 306.651 179.662 307.555 179.662 308.68V314.478Z" fill="#377541" fill-opacity="0.8"/>
<path d="M415.202 338.91C415.202 339.989 416.059 340.873 417.137 340.909L447.649 341.905C448.779 341.942 449.715 341.036 449.715 339.906V333.488C449.715 332.407 448.856 331.522 447.775 331.489L417.263 330.563C416.135 330.529 415.202 331.434 415.202 332.563V338.91Z" fill="#377541" fill-opacity="0.8"/>
<path d="M230.829 332.887C230.829 333.966 231.685 334.851 232.764 334.886L391.105 340.058C392.234 340.095 393.17 339.189 393.17 338.059V331.773C393.17 330.692 392.311 329.806 391.23 329.774L232.89 324.972C231.762 324.937 230.829 325.842 230.829 326.971V332.887Z" fill="#377541" fill-opacity="0.8"/>
<path d="M359.523 354.546C359.523 355.622 360.374 356.505 361.45 356.545L391.097 357.632C392.229 357.673 393.17 356.766 393.17 355.633V349.347C393.17 348.269 392.316 347.385 391.238 347.348L361.592 346.331C360.461 346.292 359.523 347.198 359.523 348.33V354.546Z" fill="#377541" fill-opacity="0.8"/>
<path d="M179.662 347.954C179.662 349.03 180.513 349.913 181.588 349.953L335.966 355.611C337.099 355.652 338.039 354.745 338.039 353.612V347.455C338.039 346.377 337.185 345.493 336.108 345.456L181.73 340.159C180.599 340.12 179.662 341.026 179.662 342.157V347.954Z" fill="#377541" fill-opacity="0.8"/>
<g opacity="0.5">
<path d="M263.9 174.196C299.998 118.872 362.48 136.474 402.006 75.3468C408.829 64.7959 413.552 54.068 416.853 44.0969C417.119 43.2959 417.851 42.7409 418.695 42.7118L452.829 41.5303C463.193 41.1717 471.63 49.7828 471.63 60.7652V378.037C471.63 389.019 463.193 397.543 452.829 397.077L158.6 383.844C157.05 383.774 156.253 382.138 157.332 381.023C170.21 367.707 222.415 330.715 236.66 276.022C250.694 222.135 242.121 207.575 263.9 174.196Z" fill="#377541" fill-opacity="0.8"/>
</g>
<path d="M78.9739 292.283C78.9739 259.237 107.914 233.44 142.383 234.621C162.011 235.293 179.087 244.612 189.752 258.368C189.754 258.37 189.757 258.369 189.758 258.367V258.367C189.759 258.364 189.762 258.364 189.764 258.366C189.828 258.45 189.889 258.537 189.954 258.621C190.138 258.862 190.316 259.107 190.496 259.35C190.826 259.794 191.15 260.241 191.467 260.694C191.653 260.961 191.838 261.231 192.02 261.501C192.324 261.953 192.621 262.41 192.912 262.87C193.078 263.133 193.247 263.395 193.409 263.661C193.734 264.193 194.046 264.731 194.353 265.273C194.464 265.469 194.581 265.662 194.69 265.859C195.095 266.594 195.483 267.338 195.854 268.09C195.953 268.289 196.043 268.493 196.14 268.694C196.41 269.258 196.674 269.826 196.926 270.4C197.05 270.681 197.166 270.965 197.285 271.249C197.498 271.756 197.705 272.267 197.902 272.781C198.017 273.08 198.13 273.38 198.24 273.681C198.433 274.209 198.615 274.741 198.792 275.276C198.884 275.556 198.98 275.834 199.068 276.116C199.278 276.789 199.474 277.468 199.659 278.151C199.697 278.293 199.742 278.433 199.779 278.576C199.995 279.4 200.19 280.232 200.368 281.069C200.421 281.316 200.463 281.565 200.512 281.813C200.632 282.413 200.744 283.016 200.844 283.623C200.894 283.932 200.938 284.242 200.984 284.553C201.066 285.114 201.139 285.678 201.204 286.245C201.24 286.563 201.275 286.88 201.306 287.2C201.364 287.797 201.408 288.398 201.446 289C201.464 289.28 201.487 289.559 201.5 289.841C201.543 290.721 201.569 291.605 201.569 292.496C201.569 313.701 189.376 332.406 171.095 342.421C169.414 343.342 167.681 344.19 165.9 344.961C165.008 345.347 164.104 345.714 163.188 346.06C156.754 348.495 149.749 349.938 142.383 350.164H142.383C141.368 350.196 140.359 350.201 139.354 350.185C139.014 350.18 138.679 350.16 138.341 350.15C137.676 350.13 137.012 350.109 136.352 350.069C135.948 350.044 135.549 350.006 135.148 349.974C134.558 349.927 133.969 349.88 133.384 349.817C132.956 349.771 132.531 349.714 132.105 349.66C131.552 349.589 130.999 349.517 130.451 349.433C130.013 349.365 129.578 349.29 129.143 349.213C128.612 349.12 128.082 349.024 127.556 348.918C127.115 348.829 126.677 348.735 126.24 348.638C125.725 348.523 125.213 348.402 124.702 348.275C124.264 348.166 123.828 348.054 123.394 347.936C122.89 347.799 122.389 347.654 121.89 347.505C121.46 347.377 121.03 347.248 120.605 347.112C120.45 347.062 120.292 347.02 120.138 346.969C120.134 346.968 120.133 346.963 120.136 346.96V346.96C120.138 346.958 120.137 346.953 120.133 346.952C96.289 339.083 78.9739 317.756 78.9739 292.283Z" fill="#2C2C2C"/>
<path d="M83.7106 292.291C83.7106 325.251 112.503 351.084 146.8 350.029C179.819 349.013 205.697 323.273 205.697 292.503C205.697 261.733 179.819 235.903 146.8 234.772C112.503 233.598 83.7106 259.331 83.7106 292.291Z" fill="#468D56"/>
<path d="M162.273 304.914C162.273 306.425 163.886 307.391 165.218 306.676L185.703 295.696C186.352 295.348 186.758 294.671 186.758 293.933V292.027C186.758 291.329 186.395 290.682 185.799 290.319L165.315 277.826C163.982 277.013 162.273 277.972 162.273 279.533V281.996C162.273 282.718 162.663 283.384 163.293 283.739L175.915 290.84C177.315 291.627 177.262 293.661 175.823 294.375L163.385 300.54C162.704 300.877 162.273 301.572 162.273 302.332V304.914Z" fill="#2C2C2C"/>
<path d="M138.992 270.184C137.63 270.165 136.648 271.484 137.056 272.784L149.707 313.053C149.972 313.895 150.755 314.463 151.637 314.454L154.456 314.424C155.797 314.409 156.744 313.106 156.344 311.827L143.765 271.628C143.507 270.803 142.748 270.238 141.884 270.225L138.992 270.184Z" fill="#2C2C2C"/>
<path d="M131.051 302.448C131.051 301.679 130.61 300.978 129.917 300.645L116.695 294.29C115.222 293.582 115.174 291.502 116.613 290.726L130 283.513C130.647 283.164 131.051 282.488 131.051 281.752V279.088C131.051 277.548 129.384 276.586 128.051 277.356L105.955 290.11C105.336 290.467 104.955 291.128 104.955 291.842V293.891C104.955 294.642 105.375 295.329 106.043 295.671L128.139 306.99C129.47 307.672 131.051 306.705 131.051 305.21V302.448Z" fill="#2C2C2C"/>
<g opacity="0.3">
<path d="M131.884 335.686C139.326 318.428 131.802 302.481 141.851 291.413C151.944 280.295 164.89 290.687 178.613 281.791C183.369 278.707 188.577 273.072 192.7 262.05C193.265 260.54 195.274 260.201 196.174 261.538C202.204 270.496 205.697 281.13 205.697 292.503C205.697 323.273 179.819 349.013 146.8 350.029C140.144 350.234 133.69 349.422 127.606 347.733C126.21 347.346 125.755 345.625 126.649 344.486C128.992 341.5 130.663 338.516 131.884 335.686Z" fill="#468D56"/>
</g>
<path d="M348.619 247.39C342.977 241.045 358.597 217.208 366.957 206.762C374.261 197.637 381.768 188.258 390.987 189.446C399.08 190.488 406.956 199.478 407.428 208.095C408.697 231.274 356.64 256.411 348.619 247.39Z" fill="#121212"/>
<path d="M416.366 492.344C417.428 493.253 417.623 495.524 417.751 497.009C417.808 497.672 417.837 498.003 417.766 498.238C417.253 499.946 414.107 500.126 409.175 500.657C401.38 501.495 399.06 502.142 398.45 500.92C397.878 499.775 399.262 497.9 399.417 497.693C400.255 496.582 401.283 496.178 403.271 495.489C406.948 494.214 409.433 493.516 410.186 493.304C414.883 491.983 415.668 491.747 416.366 492.344Z" fill="url(#paint0_linear_30_331)"/>
<path d="M413.807 485.114C412.676 484.966 411.651 485.794 411.556 486.931L410.996 493.649C410.966 494.009 411.055 494.367 411.361 494.559C412.083 495.011 413.611 495.554 415.07 495.178C415.627 495.034 415.979 494.522 416.102 493.96L417.45 487.776C417.699 486.631 416.915 485.518 415.754 485.367L413.807 485.114Z" fill="url(#paint1_linear_30_331)"/>
<path d="M354.545 491.142C355.818 492.622 356.108 495.349 355.001 496.692C353.913 498.013 352.277 497.022 347.637 497.168C342.666 497.325 341.368 498.561 337.991 497.58C336.626 497.182 334.216 496.219 334.262 495.192C334.294 494.471 335.521 494.098 339.619 492.652C345.436 490.6 345.41 490.487 346.645 490.272C349.748 489.73 352.864 489.187 354.545 491.142Z" fill="url(#paint2_linear_30_331)"/>
<path d="M353.187 482.991C352.158 482.773 351.136 483.388 350.848 484.399L349.055 490.678C348.933 491.105 348.991 491.554 349.358 491.805C350.107 492.316 351.586 492.927 353.038 492.618C353.52 492.515 353.874 492.129 354.072 491.676L356.486 486.148C356.993 484.988 356.307 483.655 355.069 483.391L353.187 482.991Z" fill="url(#paint3_linear_30_331)"/>
<path d="M375.912 291.839C374.674 291.565 373.496 292.498 373.477 293.766C373.046 322.501 371.125 354.665 366.688 389.525C362.278 424.182 356.137 455.57 349.42 483.273C349.166 484.32 349.784 485.378 350.82 485.672C353.009 486.292 355.199 486.912 357.388 487.533C358.079 487.729 358.823 487.541 359.33 487.032C367.257 479.077 376.921 466.854 381.667 449.819C384.716 438.876 383.7 433.254 385.634 419.795C388.713 398.365 394.949 387.138 401.396 369.858C407.073 354.637 413.764 332.442 417.484 302.882C417.613 301.861 416.94 300.908 415.935 300.686C402.594 297.737 389.253 294.788 375.912 291.839Z" fill="#26264F"/>
<path d="M404.236 288.425C403.13 288.46 402.269 289.404 402.326 290.509C404.226 327.2 405.792 364.56 406.983 402.571C407.876 431.021 408.536 459.118 408.98 486.853C408.996 487.846 409.737 488.677 410.722 488.805C412.933 489.092 415.145 489.38 417.356 489.668C418.195 489.777 419.012 489.348 419.388 488.59C422.438 482.441 426.252 473.486 428.921 462.216C432.39 447.565 431.587 438.863 433.108 423.678C434.815 406.646 437.295 402.935 441.687 381.45C450.603 337.846 455.061 316.044 445.115 302.482C441.961 298.18 432.229 287.54 404.236 288.425Z" fill="#26264F"/>
<path d="M449.692 196.036C449.622 195.218 449.059 194.524 448.269 194.298C440.714 192.137 430.053 189.744 417.157 188.976C397.679 187.816 387.939 187.237 381.038 192.122C365.098 203.406 377.438 229.45 370.914 294.01C369.982 303.229 369.773 312.515 369.098 321.759C367.981 337.065 367.726 337.896 368.737 339.447C375.078 349.173 398.735 334.503 433.409 340.302C452.81 343.547 461.608 351.022 466.923 345.63C473.122 339.343 467.805 322.431 463.228 307.872C457.974 291.161 454.729 290.946 451.747 278.361C448.63 265.207 450.515 258.433 451.001 237.69C451.227 228.011 451.186 213.724 449.692 196.036Z" fill="#2A2A2A"/>
<path d="M402.423 315.881C411.486 315.134 417.365 320.531 425.188 316.325C435.915 310.558 439.362 292.615 438.678 279.916C437.64 260.62 427.179 255.534 428.982 243.062C429.899 236.725 433.99 228.437 448.095 219.87C449.378 219.091 450.995 220.008 451.025 221.509C451.151 227.799 451.105 233.237 451.001 237.69C450.516 258.434 448.63 265.207 451.747 278.361C454.729 290.947 457.975 291.162 463.228 307.873C467.805 322.431 473.122 339.343 466.924 345.631C461.609 351.023 452.81 343.547 433.409 340.303C405.776 335.681 385.151 344.049 374.702 342.718C373.458 342.559 372.938 341.18 373.583 340.106C384.563 321.835 394.515 316.533 402.423 315.881Z" fill="#2A2A2A"/>
<path d="M437.213 196.003C443.685 190.401 456.699 196.742 460.178 198.437C479.579 207.889 496.997 233.359 492.682 260.275C492.034 264.312 489.033 283.194 473.853 292.342C460.156 300.597 441.661 298.474 426.843 286.782C424.818 284.89 422.793 282.997 420.767 281.105C419.216 279.338 417.664 277.571 416.112 275.804C415.382 274.974 415.461 273.706 416.322 273.012C419.542 270.417 424.348 267.223 430.717 265.058C440.57 261.709 447.743 267.718 452.315 263.15C455.47 259.997 455.477 254.428 454.698 251.053C453.127 244.251 447.435 242.339 442.683 237.511C431.52 226.168 429.463 202.71 437.213 196.003Z" fill="#242424"/>
<path d="M344.127 285.769C344.166 284.707 345.031 283.861 346.094 283.844L422.306 282.646C424.426 282.612 425.134 285.468 423.244 286.428L408.376 293.986C408.053 294.15 407.692 294.223 407.332 294.198L345.909 289.964C344.831 289.89 344.007 288.974 344.048 287.895L344.127 285.769Z" fill="url(#paint4_linear_30_331)"/>
<path d="M434.014 284.938V284.938C434.014 286.648 432.999 288.176 431.473 288.76L406.468 299.085C405.164 299.624 403.727 298.679 403.705 297.268L403.648 293.704C403.634 292.848 404.168 292.077 404.975 291.789L430.953 282.51C432.486 282.046 434.014 283.258 434.014 284.938Z" fill="url(#paint5_linear_30_331)"/>
<path d="M420.656 279.531C421.188 279.406 418.062 272.845 415.607 273.602C413.153 274.359 401.149 281.686 400.059 284.703V284.703C399.59 285.998 400.797 287.824 402.172 287.788C403.854 287.743 405.884 287.557 407.451 287.002C410.698 285.853 416.326 280.548 420.656 279.531Z" fill="#E1CFA7"/>
<path d="M408.921 171.489C410.802 170.526 415.88 172.969 416.095 175.071C416.322 177.295 416.619 179.204 416.908 180.771C417.606 184.556 418.109 185.533 418.751 186.327C419.718 187.521 421.182 188.523 429.457 190.684C433.96 191.86 434.539 191.828 434.639 192.299C435.124 194.595 422.845 202.42 410.16 200.534C402.396 199.38 395.332 194.715 395.765 192.265C396.202 189.799 403.957 191.122 406.268 186.662C407.739 183.823 406.356 179.895 404.479 176.454C404.154 175.857 404.111 175.123 404.535 174.593C405.567 173.305 407.199 172.371 408.921 171.489Z" fill="#E1CFA7"/>
<path d="M401.293 168.966C399.461 166.403 399.348 161.927 401.459 159.098C403.276 156.664 406.135 156.317 407.846 156.108C412.806 155.505 419.065 157.686 421.241 162.494C422.531 165.343 419.741 171.264 419.304 172.328C418.809 173.532 417.913 173.945 417.083 174.855C416.296 175.718 415.205 176.93 413.654 178.683C412.624 179.847 410.662 179.37 410.066 177.935V177.935C409.854 177.423 409.001 175.426 407.711 173.769C405.126 170.448 403.03 171.396 401.293 168.966Z" fill="#0C0C0D"/>
<path d="M416.048 178.384C415.626 178.574 415.261 178.874 414.988 179.248C413.939 180.682 410.816 184.202 405.632 183.847C399.82 183.448 398.968 169.718 402.681 166.805C403.92 165.833 406.4 165.43 408.417 166.025C409.609 166.377 410.012 166.898 411.969 167.433C413.775 167.926 414.284 167.715 414.829 168.198C415.234 168.557 415.574 169.224 415.546 170.546C415.525 171.519 417.383 172.696 418.255 173.13V173.13C418.405 173.205 418.805 173.491 419.029 173.924C419.782 175.375 418.673 177.199 416.048 178.384Z" fill="#E1CFA7"/>
<path d="M415.092 167.377C414.812 167.597 415.669 168.699 415.733 170.257C415.857 173.284 412.949 176.917 409.982 177.225C408.228 177.407 407.746 176.293 404.846 175.97C403.676 175.84 402.634 175.897 401.79 176.012C401.061 176.112 400.478 176.668 400.367 177.395C399.924 180.3 400.81 183.036 402.668 184.391C404.936 186.044 407.833 185.041 409.044 184.622C409.854 184.341 412.45 183.448 413.807 180.941C415.221 178.328 413.833 176.752 415.455 174.985C416.273 174.093 417.348 173.707 418.394 171.982C418.402 171.969 418.41 171.956 418.417 171.943C418.813 171.282 418.659 170.452 418.135 169.887C416.818 168.469 415.425 167.116 415.092 167.377Z" fill="#161617"/>
<path d="M406.229 179.004C406.018 179.028 405.815 178.926 405.618 178.848C405.129 178.654 404.043 178.325 402.486 178.417C402.38 178.423 402.264 178.39 402.25 178.333C402.2 178.116 403.592 177.144 404.875 177.524C405.785 177.794 406.493 178.701 406.371 178.933C406.348 178.975 406.297 178.996 406.229 179.004Z" fill="#377541" fill-opacity="0.8"/>
<path d="M401.324 236.592L407.439 295.237C407.65 297.26 404.96 300.275 403.03 300.179L313.32 294.378C311.846 294.304 310.619 293.162 310.369 291.63L299.109 234.989C298.773 232.928 302.291 230.799 304.276 230.857L398.286 233.642C399.856 233.689 401.152 234.947 401.324 236.592Z" fill="url(#paint6_linear_30_331)"/>
<path d="M399.273 238.302L405.389 296.947C405.599 298.971 404.044 300.714 402.113 300.618L311.269 296.088C309.795 296.015 308.568 294.872 308.318 293.34L299.037 236.44C298.701 234.379 300.24 232.509 302.225 232.568L396.235 235.352C397.805 235.398 399.102 236.658 399.273 238.302Z" fill="#858782"/>
<path opacity="0.3" d="M345.93 282.347C353.862 278.805 351.062 272.053 360.429 263.639C372.786 252.538 385.381 257.352 389.791 248.749C390.963 246.46 391.613 243.085 390.287 237.944C389.936 236.583 390.942 235.196 392.348 235.237L396.235 235.353C397.805 235.399 399.102 236.658 399.273 238.302L405.389 296.948C405.599 298.971 404.044 300.714 402.113 300.619L311.269 296.089C309.795 296.015 308.568 294.873 308.318 293.341L307.258 286.843C307.125 286.027 307.505 285.209 308.233 284.817C310.732 283.473 313.628 282.289 316.931 281.583C330.259 278.736 336.797 286.423 345.93 282.347Z" fill="url(#paint7_linear_30_331)"/>
<path d="M305.546 287.886C305.398 287.413 305.712 286.927 306.183 286.901C308.103 286.798 312.556 286.756 315.015 288.342C318.208 290.402 322.337 294.162 318.86 296.059L315.613 297.83C315.464 297.912 315.301 297.937 315.138 297.899C313.984 297.632 309.128 296.498 308.597 296.216C308.113 295.96 306.262 290.172 305.546 287.886Z" fill="#E1CFA7"/>
<path d="M242.904 95.1389C242.904 40.653 195.186 -1.88238 138.352 0.0642357C105.989 1.17266 77.8321 16.5371 60.2483 39.2192C60.2456 39.2227 60.24 39.2216 60.2387 39.2174V39.2174C60.2373 39.2132 60.2318 39.2123 60.2291 39.2158C60.1224 39.3544 60.0223 39.498 59.9159 39.6368C59.6119 40.0337 59.3184 40.438 59.0205 40.8392C58.4776 41.5712 57.9424 42.3079 57.4206 43.0544C57.1127 43.4955 56.8093 43.9394 56.5087 44.3856C56.0071 45.1305 55.5183 45.8832 55.0378 46.6416C54.7633 47.0758 54.4855 47.5079 54.2181 47.9464C53.6829 48.8229 53.1677 49.7111 52.6618 50.6044C52.4782 50.9279 52.2857 51.2455 52.1064 51.5711C51.4392 52.7823 50.7989 54.0083 50.1862 55.2487C50.0236 55.5777 49.875 55.9138 49.7163 56.2447C49.2704 57.1756 48.8343 58.1108 48.4192 59.0571C48.2155 59.5209 48.0232 59.9896 47.827 60.4571C47.4762 61.2945 47.1358 62.1362 46.8095 62.9848C46.6201 63.4776 46.4339 63.9714 46.2528 64.4678C45.9353 65.3386 45.6343 66.2161 45.3433 67.0979C45.1909 67.5594 45.0332 68.0181 44.8879 68.4823C44.5411 69.5922 44.2186 70.7115 43.9138 71.8376C43.8505 72.0727 43.7768 72.3038 43.7149 72.5395C43.3592 73.898 43.0375 75.2694 42.7442 76.6499C42.6575 77.0563 42.5867 77.4676 42.5062 77.8759C42.3098 78.8661 42.1242 79.8594 41.9603 80.8601C41.8775 81.3696 41.8041 81.8817 41.7294 82.3939C41.5942 83.3197 41.473 84.2492 41.3665 85.1833C41.3065 85.7074 41.2481 86.2314 41.1972 86.7578C41.102 87.7427 41.0291 88.7332 40.9659 89.7267C40.9368 90.189 40.8993 90.6487 40.8767 91.1128C40.8069 92.5643 40.7638 94.0222 40.7638 95.4904C40.7638 130.454 60.8689 161.296 91.0099 177.81C93.782 179.328 96.6402 180.727 99.5773 181.998C101.048 182.634 102.538 183.238 104.048 183.81C114.658 187.824 126.206 190.204 138.352 190.577V190.577C138.352 190.577 138.353 190.577 138.353 190.577C140.026 190.629 141.69 190.637 143.347 190.612C143.907 190.604 144.46 190.571 145.017 190.554C146.113 190.52 147.209 190.486 148.297 190.42C148.962 190.379 149.62 190.316 150.282 190.263C151.254 190.185 152.226 190.108 153.19 190.004C153.896 189.928 154.597 189.834 155.299 189.745C156.211 189.629 157.122 189.51 158.027 189.37C158.749 189.259 159.466 189.134 160.183 189.009C161.059 188.855 161.932 188.696 162.8 188.521C163.526 188.375 164.248 188.22 164.969 188.059C165.819 187.87 166.664 187.671 167.506 187.461C168.227 187.281 168.947 187.097 169.662 186.903C170.494 186.677 171.32 186.437 172.143 186.191C172.851 185.98 173.56 185.769 174.261 185.543C174.516 185.461 174.777 185.391 175.031 185.308C175.037 185.306 175.039 185.299 175.035 185.294V185.294C175.031 185.289 175.033 185.282 175.039 185.28C214.354 172.305 242.904 137.14 242.904 95.1389Z" fill="url(#paint8_linear_30_331)"/>
<path d="M235.094 95.1526C235.094 149.498 187.619 192.094 131.07 190.354C76.6266 188.679 33.9579 146.237 33.9579 95.5029C33.9579 44.7683 76.6266 2.17829 131.07 0.313765C187.619 -1.62321 235.094 40.8069 235.094 95.1526Z" fill="url(#paint9_linear_30_331)"/>
<path d="M91.3116 145.678C88.5941 145.628 86.1674 145.33 84.0296 144.782C83.1925 144.567 82.6393 143.792 82.6393 142.928V133.62C82.6393 132.29 83.9134 131.336 85.2169 131.599C86.7533 131.909 88.1987 132.073 89.553 132.09C92.7872 132.129 95.1077 131.051 96.5084 128.854C97.9109 126.654 98.6128 123.198 98.6128 118.486V48.725C98.6128 47.6398 99.4782 46.7526 100.563 46.7257L111.5 46.454C112.624 46.4261 113.55 47.3294 113.55 48.4534V118.475C113.55 127.467 111.66 134.291 107.889 138.937C104.131 143.567 98.5969 145.81 91.3116 145.678Z" fill="#377541" fill-opacity="0.8"/>
<path d="M186.413 114.53C186.413 122.899 183.557 129.462 177.866 134.202C172.202 138.919 164.368 141.191 154.404 141.035C145.759 140.899 138.114 139.135 131.45 135.762C130.795 135.43 130.394 134.751 130.394 134.016V120.576C130.394 119.099 131.942 118.13 133.284 118.75C137.726 120.8 141.588 122.303 144.863 123.255C148.842 124.411 152.492 125.005 155.811 125.035C159.806 125.07 162.879 124.282 165.027 122.667C167.178 121.049 168.253 118.625 168.253 115.394C168.253 113.592 167.779 111.986 166.831 110.577C165.884 109.169 164.495 107.815 162.664 106.517C160.837 105.22 157.122 103.151 151.536 100.32C146.325 97.7098 142.432 95.2087 139.846 92.8163C137.265 90.429 135.205 87.6492 133.67 84.4758C132.138 81.3066 131.37 77.5977 131.37 73.346C131.37 65.3339 133.892 58.9899 138.949 54.2942C144.028 49.5783 151.089 47.1036 160.159 46.8848C164.642 46.7765 168.935 47.2393 173.035 48.276C176.608 49.1798 180.335 50.4341 184.218 52.0382C185.212 52.4486 185.682 53.5822 185.29 54.5836L180.734 66.2485C180.326 67.2947 179.136 67.7975 178.094 67.3785C174.277 65.844 171.067 64.7557 168.46 64.1137C165.44 63.3699 162.479 63.0216 159.571 63.072C156.125 63.1316 153.487 64.0303 151.653 65.7705C149.821 67.5079 148.909 69.7465 148.909 72.4921C148.909 74.1993 149.279 75.6791 150.017 76.9411C150.756 78.204 151.937 79.4185 153.554 80.5896C155.174 81.7625 159.02 83.866 165.115 86.9153C173.222 90.9777 178.814 95.0865 181.847 99.2288C184.887 103.382 186.413 108.485 186.413 114.53Z" fill="#377541" fill-opacity="0.8"/>
<g opacity="0.2">
<path d="M155.663 166.704C143.392 138.249 155.798 111.955 139.229 93.7045C122.587 75.3726 101.241 92.5085 78.6134 77.8392C70.4451 72.5437 61.4687 62.6822 54.546 42.9712C54.0119 41.4507 52.0005 41.1006 51.0661 42.4137C40.2608 57.5974 33.9574 75.8819 33.9574 95.5025C33.9574 146.237 76.6261 188.679 131.069 190.354C142.747 190.713 154.048 189.175 164.638 186.015C166.026 185.601 166.48 183.881 165.553 182.768C161.02 177.329 157.888 171.862 155.663 166.704Z" fill="url(#paint10_linear_30_331)"/>
</g>
</g>
<defs>
<filter id="filter0_d_30_331" x="3.99988" y="0" width="580.4" height="574.235" filterUnits="userSpaceOnUse" color-interpolation-filters="sRGB">
<feFlood flood-opacity="0" result="BackgroundImageFix"/>
<feColorMatrix in="SourceAlpha" type="matrix" values="0 0 0 0 0 0 0 0 0 0 0 0 0 0 0 0 0 0 127 0" result="hardAlpha"/>
<feOffset dx="22" dy="21"/>
<feGaussianBlur stdDeviation="5.7"/>
<feComposite in2="hardAlpha" operator="out"/>
<feColorMatrix type="matrix" values="0 0 0 0 0 0 0 0 0 0 0 0 0 0 0 0 0 0 0.33 0"/>
<feBlend mode="normal" in2="BackgroundImageFix" result="effect1_dropShadow_30_331"/>
<feBlend mode="normal" in="SourceGraphic" in2="effect1_dropShadow_30_331" result="shape"/>
</filter>
<filter id="filter1_d_30_331" x="-0.00012207" y="209.633" width="555" height="340.202" filterUnits="userSpaceOnUse" color-interpolation-filters="sRGB">
<feFlood flood-opacity="0" result="BackgroundImageFix"/>
<feColorMatrix in="SourceAlpha" type="matrix" values="0 0 0 0 0 0 0 0 0 0 0 0 0 0 0 0 0 0 127 0" result="hardAlpha"/>
<feOffset dy="4"/>
<feGaussianBlur stdDeviation="2"/>
<feComposite in2="hardAlpha" operator="out"/>
<feColorMatrix type="matrix" values="0 0 0 0 0 0 0 0 0 0 0 0 0 0 0 0 0 0 0.25 0"/>
<feBlend mode="normal" in2="BackgroundImageFix" result="effect1_dropShadow_30_331"/>
<feBlend mode="normal" in="SourceGraphic" in2="effect1_dropShadow_30_331" result="shape"/>
</filter>
<linearGradient id="paint0_linear_30_331" x1="398.414" y1="496.529" x2="417.831" y2="497.062" gradientUnits="userSpaceOnUse">
<stop stop-color="#444B8C"/>
<stop offset="0.9964" stop-color="#26264F"/>
</linearGradient>
<linearGradient id="paint1_linear_30_331" x1="410.95" y1="490.074" x2="417.913" y2="490.074" gradientUnits="userSpaceOnUse">
<stop stop-color="#FFC444"/>
<stop offset="0.9964" stop-color="#F36F56"/>
</linearGradient>
<linearGradient id="paint2_linear_30_331" x1="335.369" y1="490.898" x2="355.405" y2="496.128" gradientUnits="userSpaceOnUse">
<stop stop-color="#444B8C"/>
<stop offset="0.9964" stop-color="#26264F"/>
</linearGradient>
<linearGradient id="paint3_linear_30_331" x1="348.867" y1="487.652" x2="357.467" y2="487.652" gradientUnits="userSpaceOnUse">
<stop stop-color="#FFC444"/>
<stop offset="0.9964" stop-color="#F36F56"/>
</linearGradient>
<linearGradient id="paint4_linear_30_331" x1="374.688" y1="321.651" x2="386.191" y2="290.707" gradientUnits="userSpaceOnUse">
<stop stop-color="#311944"/>
<stop offset="1" stop-color="#893976"/>
</linearGradient>
<linearGradient id="paint5_linear_30_331" x1="420.534" y1="276.275" x2="416.275" y2="304.215" gradientUnits="userSpaceOnUse">
<stop stop-color="#311944"/>
<stop offset="1" stop-color="#893976"/>
</linearGradient>
<linearGradient id="paint6_linear_30_331" x1="344.287" y1="278.727" x2="366.191" y2="249.196" gradientUnits="userSpaceOnUse">
<stop stop-color="#688C44"/>
<stop offset="0.9964" stop-color="#26264F"/>
</linearGradient>
<linearGradient id="paint7_linear_30_331" x1="405.408" y1="267.887" x2="307.038" y2="267.887" gradientUnits="userSpaceOnUse">
<stop stop-color="#311944"/>
<stop offset="1" stop-color="#893976"/>
</linearGradient>
<linearGradient id="paint8_linear_30_331" x1="7.6845" y1="-188.326" x2="169.65" y2="120.264" gradientUnits="userSpaceOnUse">
<stop stop-color="#445147"/>
<stop offset="0.9964" stop-color="#5D8265"/>
</linearGradient>
<linearGradient id="paint9_linear_30_331" x1="95.4098" y1="18.7754" x2="252.286" y2="295.021" gradientUnits="userSpaceOnUse">
<stop stop-color="#262626"/>
<stop offset="0.9964" stop-color="#393332"/>
</linearGradient>
<linearGradient id="paint10_linear_30_331" x1="55.6184" y1="37.5858" x2="208.448" y2="328.77" gradientUnits="userSpaceOnUse">
<stop stop-color="#858782"/>
<stop offset="0.9964" stop-color="#474D3B"/>
</linearGradient>
</defs>
</svg>
